<svg width="115" height="115" viewBox="0 0 115 115" fill="none" xmlns="http://www.w3.org/2000/svg">
<rect width="115" height="115" rx="20" fill="#183D68"/>
<g clip-path="url(#clip0_1_10)">
<path d="M32.2581 100.636L58.0016 100.634H83.744L84.2129 98.1432L77.0328 98.1755L77.5059 93.4915L85.005 93.3277L88.3192 66.1809H57.9995H57.1523H27.6819L30.996 93.3277L38.4951 93.4915L38.9683 98.1755L31.7882 98.1432L32.2581 100.636Z" fill="white"/>
<path d="M14.4911 96.1784C15.5161 97.684 17.0702 98.8178 19.2064 99.6143L29.8741 100.637H30.6134L29.8374 96.5168L37.1803 96.5513L37.0315 95.0769L29.5626 94.9142L25.8562 64.5654H57.1987H58.0005H90.1471L86.4395 94.9131L78.9706 95.0758L78.8219 96.5502L86.1647 96.5157L85.3887 100.633H86.2046L96.7947 99.6143C99.5969 98.5689 101.404 96.949 102.318 94.6631C104.677 88.7644 100.341 79.9957 98.0094 75.2859C97.4198 74.0939 96.9542 73.153 96.7311 72.529C96.3032 71.3305 96.0079 69.8313 95.6954 68.2449C94.9744 64.5848 94.1563 60.4354 91.4813 58.2949C88.2814 55.7352 73.1496 53.8071 67.3501 53.2553C64.5296 54.6618 61.3621 55.4733 58.0016 55.4733C54.6411 55.4733 51.4736 54.6618 48.6531 53.2542C42.8547 53.8071 27.7207 55.7352 24.5197 58.2949C21.8447 60.4354 21.0267 64.5848 20.3057 68.2449C19.9931 69.8313 19.6978 71.3305 19.2699 72.529C19.0468 73.153 18.5812 74.095 17.9906 75.287C16.9646 77.3595 15.5516 80.2199 14.4901 83.2743C13.1396 87.1597 12.3604 91.3619 13.6817 94.6652C13.9005 95.2062 14.171 95.7096 14.4911 96.1784Z" fill="white"/>
<path d="M46.2766 49.883C49.5401 52.3651 53.5957 53.8567 58.0016 53.8567C62.4075 53.8567 66.4642 52.3651 69.7266 49.883C74.3966 46.3317 77.4294 40.7349 77.4294 34.4289C77.4294 34.0172 77.3928 33.6141 77.3669 33.2089C76.7321 23.0649 68.3018 15 58.0005 15C47.6992 15 39.269 23.0638 38.6331 33.2089C38.6083 33.6141 38.5716 34.0172 38.5716 34.4289C38.5727 40.7338 41.6066 46.3307 46.2766 49.883Z" fill="white"/>
</g>
<defs>
<clipPath id="clip0_1_10">
<rect width="90" height="85.6371" fill="white" transform="translate(13 15)"/>
</clipPath>
</defs>
</svg>
